<svg xmlns="http://www.w3.org/2000/svg" viewBox="0 0 48 48"><g data-name="04-medicine"><path d="M42.5 47H12a1 1 0 0 1-.707-.293l-3-3 1.414-1.414L12.414 45H42.5a1.5 1.5 0 0 0 0-3H31a1 1 0 0 1-.707-.293l-4-4 1.414-1.414L31.414 40H42.5a3.5 3.5 0 0 1 0 7z"/><path d="M28.5 38H20v-2h8.5a1.5 1.5 0 0 0 0-3H23a1 1 0 0 1-1-1v-1a1 1 0 0 0-1-1h-8.586l-2.707 2.707-1.414-1.414 3-3A1 1 0 0 1 12 28h9a3 3 0 0 1 3 3h4.5a3.5 3.5 0 0 1 0 7z"/><path d="M7 48H1a1 1 0 0 1-1-1V27a1 1 0 0 1 1-1h6a3 3 0 0 1 3 3v16a3 3 0 0 1-3 3zm-5-2h5a1 1 0 0 0 1-1V29a1 1 0 0 0-1-1H2z"/><path d="M4 30h2v2H4zM17 14h-2V8a3 3 0 0 1 3-3h8v2h-8a1 1 0 0 0-1 1z"/><path d="M13 26h-2V16a3 3 0 0 1 3-3h12v2H14a1 1 0 0 0-1 1zM16 9h10v2H16z"/><path d="M25 26h-2v-6H12v-2h12a1 1 0 0 1 1 1zM40 16h-4a1 1 0 0 1-1-1v-2h-2a1 1 0 0 1-1-1V8a1 1 0 0 1 1-1h2V5a1 1 0 0 1 1-1h4a1 1 0 0 1 1 1v2h2a1 1 0 0 1 1 1v4a1 1 0 0 1-1 1h-2v2a1 1 0 0 1-1 1zm-3-2h2v-2a1 1 0 0 1 1-1h2V9h-2a1 1 0 0 1-1-1V6h-2v2a1 1 0 0 1-1 1h-2v2h2a1 1 0 0 1 1 1zM35 24h2v14h-2z"/><path d="M32 25a1 1 0 0 1-1-1v-4a3 3 0 0 1-3-3V3a3 3 0 0 1 3-3h14a3 3 0 0 1 3 3v14a3 3 0 0 1-3 3h-7.586l-4.707 4.707A1 1 0 0 1 32 25zM31 2a1 1 0 0 0-1 1v14a1 1 0 0 0 1 1h1a1 1 0 0 1 1 1v2.586l3.293-3.293A1 1 0 0 1 37 18h8a1 1 0 0 0 1-1V3a1 1 0 0 0-1-1zM5 1h2v6H5z"/><path d="M3 3h6v2H3zM5 9h2v8H5zM5 19h2v2H5zM42 22h2v6h-2z"/><path d="M40 24h6v2h-6zM42 30h2v4h-2zM42 36h2v2h-2z"/></g></svg>